<?xml version="1.0" encoding="utf-8"?>
<!-- Generator: Adobe Illustrator 19.1.0, SVG Export Plug-In . SVG Version: 6.00 Build 0)  -->
<svg version="1.1" id="Ebene_1" xmlns="http://www.w3.org/2000/svg" xmlns:xlink="http://www.w3.org/1999/xlink" x="0px" y="0px"
	 viewBox="-2 4 24 24" style="enable-background:new -2 4 24 24;" xml:space="preserve">
<style type="text/css">
	.st0{fill:none;}
	.st1{clip-path:url(#SVGID_3_);}
	.st2{clip-path:url(#SVGID_4_);fill:#FFFFFF;}
	.st3{clip-path:url(#SVGID_7_);}
	.st4{clip-path:url(#SVGID_8_);fill:#FFFFFF;}
	.st5{clip-path:url(#SVGID_11_);}
	.st6{clip-path:url(#SVGID_12_);fill:#FFFFFF;}
	.st7{clip-path:url(#SVGID_15_);}
	.st8{clip-path:url(#SVGID_16_);fill:#FFFFFF;}
	.st9{clip-path:url(#SVGID_19_);}
	.st10{clip-path:url(#SVGID_20_);fill:#FFFFFF;}
	.st11{clip-path:url(#SVGID_23_);}
	.st12{clip-path:url(#SVGID_24_);fill:#FFFFFF;}
	.st13{clip-path:url(#SVGID_27_);}
	.st14{clip-path:url(#SVGID_28_);fill:#FFFFFF;}
	.st15{clip-path:url(#SVGID_31_);}
	.st16{clip-path:url(#SVGID_32_);fill:#FFFFFF;}
</style>
<path class="st0" d="M-7.8-2H28v35.8H-7.8V-2z"/>
<g>
	<g>
		<defs>
			<rect id="SVGID_1_" x="-2" y="7.1" width="23.8" height="17.3"/>
		</defs>
		<defs>
			<path id="SVGID_2_" d="M6.6,11.6c0-0.7,0.6-1.3,1.3-1.3c0.7,0,1.3,0.6,1.3,1.3c0,0.7-0.6,1.3-1.3,1.3C7.2,13,6.6,12.4,6.6,11.6
				L6.6,11.6L6.6,11.6z M8,8.4c-1.9,0-3.2,1.4-3.2,3.3v4.4h2.2v-1.4c0.2,0.1,0.8,0.3,1,0.3c0,0,0,0,0,0c1.9,0,3.2-1.4,3.2-3.3
				C11.2,9.9,9.7,8.4,8,8.4L8,8.4L8,8.4z"/>
		</defs>
		<clipPath id="SVGID_3_">
			<use xlink:href="#SVGID_1_"  style="overflow:visible;"/>
		</clipPath>
		<clipPath id="SVGID_4_" class="st1">
			<use xlink:href="#SVGID_2_"  style="overflow:visible;"/>
		</clipPath>
		<rect x="2" y="5.7" class="st2" width="11.9" height="13.1"/>
	</g>
	<g>
		<defs>
			<rect id="SVGID_5_" x="-2" y="7.1" width="23.8" height="17.3"/>
		</defs>
		<defs>
			<path id="SVGID_6_" d="M1.2,10.3c-0.7,0-1.3,0.6-1.3,1.3c0,0.7,0.6,1.3,1.3,1.3c0.7,0,1.3-0.6,1.3-1.3C2.5,10.9,2,10.3,1.2,10.3
				L1.2,10.3L1.2,10.3z M4.4,11.7c0,1.8-1.4,3.3-3.2,3.3S-2,13.5-2,11.7c0-1.8,1.4-3.3,3.2-3.3S4.4,9.9,4.4,11.7L4.4,11.7L4.4,11.7z
				"/>
		</defs>
		<clipPath id="SVGID_7_">
			<use xlink:href="#SVGID_5_"  style="overflow:visible;"/>
		</clipPath>
		<clipPath id="SVGID_8_" class="st3">
			<use xlink:href="#SVGID_6_"  style="overflow:visible;"/>
		</clipPath>
		<rect x="-4.7" y="5.7" class="st4" width="11.9" height="11.9"/>
	</g>
	<g>
		<defs>
			<rect id="SVGID_9_" x="-2" y="7.1" width="23.8" height="17.3"/>
		</defs>
		<defs>
			<path id="SVGID_10_" d="M17,11.7c0-0.7,0.6-1.3,1.3-1.3c0.7,0,1.3,0.6,1.3,1.3c0,0.7-0.6,1.3-1.3,1.3C17.6,13,17,12.4,17,11.7
				L17,11.7L17,11.7z M18.3,8.4c-1.8,0-3.2,1.5-3.2,3.3c0,2.1,1.5,3.3,2.8,3.3c0.7,0,1-0.2,1.5-0.4v0.3h2.2v-3.1
				C21.5,9.8,20.3,8.4,18.3,8.4L18.3,8.4L18.3,8.4z"/>
		</defs>
		<clipPath id="SVGID_11_">
			<use xlink:href="#SVGID_9_"  style="overflow:visible;"/>
		</clipPath>
		<clipPath id="SVGID_12_" class="st5">
			<use xlink:href="#SVGID_10_"  style="overflow:visible;"/>
		</clipPath>
		<rect x="12.4" y="5.7" class="st6" width="11.9" height="12"/>
	</g>
	<g>
		<defs>
			<rect id="SVGID_13_" x="-2" y="7.1" width="23.8" height="17.3"/>
		</defs>
		<defs>
			<path id="SVGID_14_" d="M17.2,20.8c0-0.7,0.6-1.3,1.3-1.3s1.3,0.6,1.3,1.3c0,0.7-0.6,1.3-1.3,1.3S17.2,21.5,17.2,20.8L17.2,20.8
				L17.2,20.8z M18.5,17.5c-1.8,0-3.2,1.5-3.2,3.3c0,2.1,1.5,3.3,2.8,3.3c0.7,0,1-0.2,1.5-0.4V24h2.2v-3.1
				C21.8,19,20.5,17.5,18.5,17.5L18.5,17.5L18.5,17.5z"/>
		</defs>
		<clipPath id="SVGID_15_">
			<use xlink:href="#SVGID_13_"  style="overflow:visible;"/>
		</clipPath>
		<clipPath id="SVGID_16_" class="st7">
			<use xlink:href="#SVGID_14_"  style="overflow:visible;"/>
		</clipPath>
		<rect x="12.6" y="14.8" class="st8" width="11.9" height="12"/>
	</g>
	<g>
		<defs>
			<rect id="SVGID_17_" x="-2" y="7.1" width="23.8" height="17.3"/>
		</defs>
		<defs>
			<path id="SVGID_18_" d="M6.8,20.8c0-0.7,0.6-1.3,1.3-1.3c0.7,0,1.3,0.6,1.3,1.3c0,0.7-0.6,1.3-1.3,1.3
				C7.4,22.1,6.8,21.5,6.8,20.8L6.8,20.8L6.8,20.8z M8.2,17.5c-1.8,0-3.2,1.5-3.2,3.3c0,2.1,1.5,3.3,2.8,3.3c0.7,0,1-0.2,1.5-0.4V24
				h2.2v-3.1C11.4,19,10.1,17.5,8.2,17.5L8.2,17.5L8.2,17.5z"/>
		</defs>
		<clipPath id="SVGID_19_">
			<use xlink:href="#SVGID_17_"  style="overflow:visible;"/>
		</clipPath>
		<clipPath id="SVGID_20_" class="st9">
			<use xlink:href="#SVGID_18_"  style="overflow:visible;"/>
		</clipPath>
		<rect x="2.2" y="14.8" class="st10" width="11.9" height="12"/>
	</g>
	<g>
		<defs>
			<rect id="SVGID_21_" x="-2" y="7.1" width="23.8" height="17.3"/>
		</defs>
		<defs>
			<path id="SVGID_22_" d="M11.5,7.2v4.7c0,1.8,0.6,2.9,2.6,2.9l0.8,0l0-2c0,0,0,0,0,0c-0.3,0-1.2,0-1.2-0.8v-1.6h1.2l0-2h-1.2V7.2
				L11.5,7.2"/>
		</defs>
		<clipPath id="SVGID_23_">
			<use xlink:href="#SVGID_21_"  style="overflow:visible;"/>
		</clipPath>
		<clipPath id="SVGID_24_" class="st11">
			<use xlink:href="#SVGID_22_"  style="overflow:visible;"/>
		</clipPath>
		<rect x="8.8" y="4.5" class="st12" width="8.9" height="13.1"/>
	</g>
	<g>
		<defs>
			<rect id="SVGID_25_" x="-2" y="7.1" width="23.8" height="17.3"/>
		</defs>
		<defs>
			<path id="SVGID_26_" d="M11.8,16.2v4.7c0,1.8,0.6,2.9,2.6,2.9l0.8,0l0-2c0,0,0,0,0,0c-0.3,0-1.2,0-1.2-0.8v-1.6h1.2l0-2h-1.2
				v-1.2L11.8,16.2"/>
		</defs>
		<clipPath id="SVGID_27_">
			<use xlink:href="#SVGID_25_"  style="overflow:visible;"/>
		</clipPath>
		<clipPath id="SVGID_28_" class="st13">
			<use xlink:href="#SVGID_26_"  style="overflow:visible;"/>
		</clipPath>
		<rect x="9.1" y="13.4" class="st14" width="8.9" height="13.1"/>
	</g>
	<g>
		<defs>
			<rect id="SVGID_29_" x="-2" y="7.1" width="23.8" height="17.3"/>
		</defs>
		<defs>
			<path id="SVGID_30_" d="M2.6,20.8c0,0.7-0.6,1.3-1.3,1.3c-0.7,0-1.3-0.6-1.3-1.3c0-0.7,0.6-1.3,1.3-1.3C2,19.5,2.6,20.1,2.6,20.8
				L2.6,20.8L2.6,20.8z M1.3,24.1c1.9,0,3.2-1.4,3.2-3.3v-4.4H2.3v1.4c-0.2-0.1-0.8-0.3-1-0.3c0,0,0,0,0,0c-1.9,0-3.2,1.4-3.2,3.3
				C-1.9,22.6-0.5,24.1,1.3,24.1L1.3,24.1L1.3,24.1z"/>
		</defs>
		<clipPath id="SVGID_31_">
			<use xlink:href="#SVGID_29_"  style="overflow:visible;"/>
		</clipPath>
		<clipPath id="SVGID_32_" class="st15">
			<use xlink:href="#SVGID_30_"  style="overflow:visible;"/>
		</clipPath>
		<rect x="-4.6" y="13.7" class="st16" width="11.9" height="13.1"/>
	</g>
</g>
</svg>
